# xmcd
#
# Track frame offsets: 
#        150
#        21020
#        35586
#        54158
#        68491
#        87591
#        101126
#        121230
#        133464
#        153476
#        171273
#        187176
#        209433
#        228343
#        245285
#
# Disc length: 3424 seconds
#
# Revision: 0
# Processed by: cddbd v1.5.2PL0 Copyright (c) Steve Scherf et al.
# Submitted via: ExactAudioCopy v0.95a5
#
DISCID=d20d5e0f
DTITLE=Big Mama - Blues* Rooted
DYEAR=2005
DGENRE=Blues
TTITLE0=Africa
TTITLE1=Phrase (Illuminations)
TTITLE2=Babylon System
TTITLE3=Shine
TTITLE4=Tibet Lliure
TTITLE5=You're Up!
TTITLE6=Victor Jara's Blues
TTITLE7=Blues Rooted
TTITLE8=Blues a la Lluna
TTITLE9=Out of Bounds Blues
TTITLE10=The Way I Feel
TTITLE11=Why Don't you do right?
TTITLE12=Somday (you'll be sorry)
TTITLE13=Just a Closer Walk with thee
TTITLE14=L'anima de les flors
EXTD=
EXTT0=
EXTT1=
EXTT2=
EXTT3=
EXTT4=
EXTT5=
EXTT6=
EXTT7=
EXTT8=
EXTT9=
EXTT10=
EXTT11=
EXTT12=
EXTT13=
EXTT14=
PLAYORDER=
